<svg xmlns="http://www.w3.org/2000/svg" viewBox="0 0 93.94 145.62"><defs><style>.cls-1{fill:#e45761;}.cls-2{fill:#437eb9;}.cls-3{fill:none;stroke:#000;stroke-linecap:round;stroke-linejoin:round;stroke-width:3px;}</style></defs><g id="Calque_2" data-name="Calque 2"><g id="Calque_3" data-name="Calque 3"><path class="cls-1" d="M91.48,56.28c.15,2.48-1.29,4.59-3.23,4.7s-3.62-1.8-3.76-4.28a4.54,4.54,0,0,1,2.1-4.38A2.55,2.55,0,0,1,87.71,52C89.64,51.88,91.33,53.8,91.48,56.28Z"/><path class="cls-1" d="M65.85,61.69c-1.93.12-3.62-1.8-3.77-4.29s1.29-4.58,3.22-4.7a3,3,0,0,1,2.1.73A5,5,0,0,1,69.06,57C69.22,59.46,67.78,61.57,65.85,61.69Z"/><path class="cls-2" d="M80.65,106.34A13,13,0,0,0,90,102c.78,9.64,1.8,21.21,2.37,29.26h0c-.84,4.46-3.72,10.28-7.82,12S75,144,72.15,140.39c-2.24-2.85-2.68-6.7-2.81-10.32A162.64,162.64,0,0,1,70,110.58c.24-2.91.49-5.81.78-8.7A12.91,12.91,0,0,0,80.65,106.34Z"/><path class="cls-1" d="M40.09,56.36A5.35,5.35,0,0,1,41.77,56c2.48-.15,4.59,1.29,4.7,3.21S44.68,62.83,42.19,63s-4.59-1.29-4.7-3.21A3.62,3.62,0,0,1,40.09,56.36Z"/><path class="cls-1" d="M11.36,56.7c2.49-.14,4.59,1.3,4.71,3.22s-1.8,3.62-4.28,3.77S7.2,62.4,7.09,60.47,8.88,56.85,11.36,56.7Z"/><path class="cls-2" d="M26.64,106.34A12.93,12.93,0,0,0,36,102c.78,9.64,1.8,21.21,2.38,29.26h0c-.83,4.46-3.73,10.28-7.82,12S21,144,18.15,140.38c-2.24-2.85-2.67-6.69-2.8-10.31A164.49,164.49,0,0,1,16,110.59q.34-4.36.78-8.7A12.86,12.86,0,0,0,26.64,106.34Zm3.57,11.56c-.11-1.92-2.22-3.36-4.7-3.21s-4.4,1.84-4.28,3.77,2.22,3.36,4.7,3.21S30.33,119.83,30.21,117.9Z"/><path class="cls-2" d="M25.51,114.69c2.48-.15,4.59,1.29,4.7,3.21s-1.8,3.62-4.28,3.77-4.59-1.29-4.7-3.21S23,114.84,25.51,114.69Z"/><path class="cls-3" d="M2.65,25.82a13.94,13.94,0,0,1,1.62-6.16c1.16-1.81,3.52-3.05,5.5-2.22,2.48,1,2.88,4.32,2.9,7l.11,15.76c0,2.11.23,4.61,2.05,5.69,1.58,1,3.76.24,5-1.17a9,9,0,0,0,1.76-5.17c.42-5.33-.95-10.72-.24-16,.43-3.13,2.39-6.73,5.54-6.6,2.16.1,3.87,2.06,4.45,4.14a19.76,19.76,0,0,1,.19,6.47,52.3,52.3,0,0,0,1.07,14.28,5.77,5.77,0,0,0,1.71,3.47c2,1.57,5.19-.23,6.06-2.65s.22-5.07-.14-7.61a34.39,34.39,0,0,1,.26-10.95c.51-2.72,1.84-5.83,4.57-6.27,2.12-.33,4.16,1.24,5.07,3.19a15.13,15.13,0,0,1,1,6.28l.44,38.08a2.53,2.53,0,0,1,0,.28"/><path class="cls-3" d="M2.26,33a139.81,139.81,0,0,0,.43,32.71"/><path class="cls-3" d="M2.83,65.78q7.92,8,15.83,16"/><path class="cls-3" d="M51.28,65.38Q44.05,74.05,36.06,82"/><path class="cls-3" d="M38.38,131.3c-.58-8.05-1.6-19.62-2.38-29.26-.25-3.23-.5-6.26-.67-8.86-.26-3.74-.5-7.63.55-11.2.12-.44.27-.87.43-1.3"/><path class="cls-3" d="M38.45,132.32c0-.33-.05-.66-.07-1"/><path class="cls-3" d="M19.11,81.62c0,.08,0,.15,0,.23q-1.32,10-2.28,20-.43,4.33-.78,8.7a164.49,164.49,0,0,0-.68,19.48c.13,3.62.56,7.46,2.8,10.31,2.82,3.59,8.2,4.67,12.41,2.91s7-7.52,7.82-12h0c0-.13,0-.26.07-.39"/><path class="cls-3" d="M14.21,53a2.05,2.05,0,0,1,.07,4.06"/><path class="cls-3" d="M40.22,52.67a1.85,1.85,0,0,0-.13,3.69"/><path class="cls-3" d="M23.32,54.7a3.8,3.8,0,0,0,7.33.09"/><path class="cls-3" d="M16.63,101.68l.18.21A12.71,12.71,0,0,0,36,102c.18-.19.35-.41.52-.62"/><path class="cls-3" d="M92.37,131.3C91.8,123.25,90.78,111.68,90,102c-.26-3.23-.49-6.26-.67-8.86-.29-4.21-.56-8.58,1-12.5"/><path class="cls-3" d="M92.44,132.32c0-.33,0-.66-.06-1"/><path class="cls-3" d="M73.12,81.62q-1.35,10.11-2.31,20.26c-.29,2.89-.54,5.79-.78,8.7a162.64,162.64,0,0,0-.69,19.49c.13,3.62.57,7.47,2.81,10.32,2.83,3.59,8.2,4.66,12.41,2.91s7-7.53,7.82-12h0c0-.13,0-.26.07-.39"/><path class="cls-3" d="M70.63,101.68l.18.2A12.7,12.7,0,0,0,90,102a7.91,7.91,0,0,0,.52-.63"/><path class="cls-3" d="M66.21,50A2.13,2.13,0,0,1,68,52a2,2,0,0,1-.59,1.44,2,2,0,0,1-1.12.62"/><path class="cls-3" d="M88.23,49.66a2,2,0,0,0-1.83,2.07,1.57,1.57,0,0,0,.19.59,1.93,1.93,0,0,0,2,1"/><path class="cls-3" d="M73.32,51.71a3.8,3.8,0,0,0,7.33.09"/><path class="cls-3" d="M2.33,33.28a1.37,1.37,0,0,1,0-.29,21.28,21.28,0,0,1,.19-4.14c.11-1,.22-2,.32-3,0-.28.07-.56.09-.85"/><path d="M91.52,81.22a390,390,0,0,0,1.56-40.87q-.15-10.11-.83-20.19c-.23-3.27-.35-6.6-.86-9.84A10.17,10.17,0,0,0,87,3.3C84.88,1.74,82.32,0,79.55,0S74.06,1.7,72,3.41c-4,3.24-6.55,8.06-7.93,13-1.8,6.33-1.79,13-2.27,19.52-.45,6.29-1.49,12.53-1.81,18.84-.34,6.65.14,13.65,3.1,19.72a17,17,0,0,0,5.31,6.5A10.11,10.11,0,0,0,72.3,82.7a2.26,2.26,0,0,0,2.77-2,1.52,1.52,0,0,0-.74-1.3l-.16-.09a1.5,1.5,0,0,0-1.52,2.59l.16.1-.74-1.3c0-1.33,1.25-.75.15-1.11a7.77,7.77,0,0,1-.8-.31,10.17,10.17,0,0,1-1.24-.71,11.5,11.5,0,0,1-2.6-2.47A19.19,19.19,0,0,1,64.49,70c-1.71-5.37-1.83-11-1.45-16.61s1.26-11.32,1.7-17S65.17,24.71,66.45,19a24.81,24.81,0,0,1,6.4-12.4C74.47,5.05,76.73,3.35,79,3s5.07,1.72,6.83,3.13c2.29,1.83,2.61,4.36,2.85,7.12q.38,4.41.65,8.84.57,9.11.71,18.23a390,390,0,0,1-1.56,40.87c-.18,1.92,2.82,1.91,3,0Z"/></g></g></svg>