<svg xmlns="http://www.w3.org/2000/svg" viewBox="0 0 282.52 357.81"><defs><style>.cls-1{fill:#f6bb61;}.cls-2{fill:none;stroke:#f6bb61;stroke-miterlimit:10;}</style></defs><g id="Calque_2" data-name="Calque 2"><g id="Calque_6" data-name="Calque 6"><path class="cls-1" d="M282,137.79c.25,22.08-2,43.05-16,65A932.51,932.51,0,0,1,142.67,357.1,935.13,935.13,0,0,1,16.73,201.79C2.55,179.84.27,158.87.52,136.79,1,96,21.23,53.53,55.22,27.79l.05.16C112.21-9.9,180.5-7.65,228,28.79,261.55,54.53,281.55,97,282,137.79Zm-53.5,70.15A108.71,108.71,0,0,0,252,140.29c0-60.48-49.25-109.5-110-109.5s-110,49-110,109.5a108.63,108.63,0,0,0,21.92,65.6,110.31,110.31,0,0,0,174.58,2.05Z"/><path class="cls-1" d="M228.5,178.8v29.14a110.31,110.31,0,0,1-174.58-2.05V163.48L78,145.79l27,17v36h14V98l23-40,22,38.8V223h12.35V147.48H207V178.8Z"/><path class="cls-2" d="M282,137.79c-.45-40.8-20.45-83.26-54-109C180.5-7.65,112.21-9.9,55.27,28l-.05-.16C21.23,53.53,1,96,.52,136.79c-.25,22.08,2,43.05,16.21,65A935.13,935.13,0,0,0,142.67,357.1,932.51,932.51,0,0,0,266,202.79C280,180.84,282.25,159.87,282,137.79Z"/><path class="cls-2" d="M53.92,205.89A108.63,108.63,0,0,1,32,140.29c0-60.48,49.25-109.5,110-109.5s110,49,110,109.5a108.71,108.71,0,0,1-23.5,67.65,110.31,110.31,0,0,1-174.58-2.05Z"/><polyline class="cls-2" points="53.92 205.89 53.92 163.48 78 145.79 105 162.79 105 198.79 119 198.79 119 97.99 142 57.99 164 96.79 164 223.03 176.35 223.03 176.35 147.48 207 147.48 207 178.8 228.5 178.8 228.5 207.94"/></g></g></svg>