<svg xmlns="http://www.w3.org/2000/svg" xmlns:xlink="http://www.w3.org/1999/xlink" viewBox="0 0 314 389"><defs><style>.cls-1{filter:url(#filter);}.cls-2{fill:#f6bb61;}.cls-3{fill:none;stroke:#f6bb61;stroke-miterlimit:10;}</style><filter id="filter"><feOffset dx="7" dy="7" input="SourceAlpha"/><feGaussianBlur stdDeviation="5" result="blur"/><feFlood/><feComposite operator="in" in2="blur"/><feComposite in="SourceGraphic"/></filter></defs><g id="Calque_2" data-name="Calque 2"><g id="Calque_6" data-name="Calque 6"><g class="cls-1"><path class="cls-2" d="M237,187.51v29.14A110.31,110.31,0,0,1,62.42,214.6V172.19L86.5,154.5l27,17v36h14V106.7l23-40,22,38.8V231.74h12.35V156.19H215.5v31.32Z"/><path class="cls-2" d="M40.5,149a108.63,108.63,0,0,0,21.92,65.6A110.31,110.31,0,0,0,237,216.65,108.71,108.71,0,0,0,260.5,149c0-60.48-49.25-109.5-110-109.5S40.5,88.52,40.5,149Zm250-2.5c.25,22.08-2,43.05-16,65A932.51,932.51,0,0,1,151.17,365.81,935.13,935.13,0,0,1,25.23,210.5C11.05,188.55,8.77,167.58,9,145.5c.46-40.8,20.71-83.26,54.7-109l.05.16C120.71-1.19,189,1.06,236.5,37.5,270.05,63.24,290.05,105.7,290.5,146.5Z"/><path class="cls-3" d="M290.5,146.5c-.45-40.8-20.45-83.26-54-109C189,1.06,120.71-1.19,63.77,36.66l-.05-.16c-34,25.74-54.24,68.2-54.7,109-.25,22.08,2,43.05,16.21,65A935.13,935.13,0,0,0,151.17,365.81,932.51,932.51,0,0,0,274.5,211.5C288.5,189.55,290.75,168.58,290.5,146.5Z"/><path class="cls-3" d="M62.42,214.6A108.63,108.63,0,0,1,40.5,149c0-60.48,49.25-109.5,110-109.5s110,49,110,109.5A108.71,108.71,0,0,1,237,216.65,110.31,110.31,0,0,1,62.42,214.6Z"/><polyline class="cls-3" points="62.42 214.6 62.42 172.19 86.5 154.5 113.5 171.5 113.5 207.5 127.5 207.5 127.5 106.7 150.5 66.7 172.5 105.5 172.5 231.74 184.85 231.74 184.85 156.19 215.5 156.19 215.5 187.51 237 187.51 237 216.65"/></g></g></g></svg>