<svg xmlns="http://www.w3.org/2000/svg" xmlns:xlink="http://www.w3.org/1999/xlink" viewBox="0 0 95.62 58.59"><defs><style>.cls-1{filter:url(#filter);}.cls-2{fill:#f6bb61;}</style><filter id="filter"><feOffset dx="7" dy="7" input="SourceAlpha"/><feGaussianBlur stdDeviation="5" result="blur"/><feFlood/><feComposite operator="in" in2="blur"/><feComposite in="SourceGraphic"/></filter></defs><g id="Calque_2" data-name="Calque 2"><g id="Calque_6" data-name="Calque 6"><g class="cls-1"><path class="cls-2" d="M12.56,55.37a24.1,24.1,0,0,1-9.16-9,25.11,25.11,0,0,1-3.4-13A24.89,24.89,0,0,1,3.4,20.44a24.1,24.1,0,0,1,9.16-9A25.66,25.66,0,0,1,25.27,8.26,25.66,25.66,0,0,1,38,11.48a23.64,23.64,0,0,1,9.09,9,25.33,25.33,0,0,1,3.33,13,25.38,25.38,0,0,1-3.36,13,24,24,0,0,1-9.1,9,25.43,25.43,0,0,1-12.67,3.22A25.66,25.66,0,0,1,12.56,55.37ZM34.69,43.75q3.53-3.91,3.53-10.36T34.69,23a12.12,12.12,0,0,0-9.42-3.88A12.21,12.21,0,0,0,15.79,23q-3.54,3.86-3.54,10.43t3.54,10.39a12.14,12.14,0,0,0,9.48,3.89A12.09,12.09,0,0,0,34.69,43.75Z"/><path class="cls-2" d="M95.62,19V58.1h-12V52.78a13.06,13.06,0,0,1-4.94,4.16,15,15,0,0,1-6.89,1.58,15.45,15.45,0,0,1-7.91-2,13.42,13.42,0,0,1-5.32-5.77,19.64,19.64,0,0,1-1.89-8.89V19H68.6V40.25a8.6,8.6,0,0,0,2,6.09,7.1,7.1,0,0,0,5.46,2.17,7.19,7.19,0,0,0,5.53-2.17,8.6,8.6,0,0,0,2-6.09V19ZM84.49,8.12v8.26L67.62,9.31V0Z"/></g></g></g></svg>